<svg version="1.0" xmlns="http://www.w3.org/2000/svg" width="933.333" height="933.333" viewBox="0 0 700 700"><path d="M322 1c-68.7 6.4-129.2 29.3-182 68.9-78.6 59-126.7 143.6-138.2 243.6-1.9 16.3-1.6 58.7.6 76.5C14.8 494.7 70.8 585.5 158 642.5c45.7 29.9 92.9 47.4 149 55.2 15.7 2.2 64 2.5 80 .5 71.2-8.8 128.4-32.7 183.5-76.6 14-11.1 43.2-40.8 54.3-55.1 40.7-52.6 64.1-108.6 72.9-174.1 2.1-16.3 2.5-63.6.5-79.4-5.6-45.4-15.8-80.1-34.8-118.5-38.7-78.4-105.1-139-187.2-170.9-27.8-10.8-52.7-17.1-84.6-21.2C377.3.6 335.7-.3 322 1zm67 12.6c113.2 13 211.9 81.8 263.5 183.5 40.5 79.9 47.4 173.3 19 259.4-16.4 49.8-40.9 90.2-77.5 127.9-57.8 59.4-133.9 95.8-214.5 102.7-13.2 1.1-44.8.9-46-.3-.7-.7 28.4-44.8 37.6-56.9 18.7-24.6 46.3-38.3 83.7-41.5 8.1-.7 8.2-.7 6.5-2.6-1-1.1-10.9-6.4-22-11.8-11.2-5.4-23.5-12-27.5-14.6-25-16.1-37.1-32.8-42.3-58.5-.3-1.9-1.3-2.9-3.2-3.4-4.7-1.1-10.4-5.5-11.9-9-2.1-5.1-1.8-9 2.1-24.1 1.9-7.5 3.5-14 3.5-14.5s-2.6-.9-5.9-.9c-10.1 0-12.9 3.7-18 23.8-5.7 22.5-5.3 22.2-24.2 22-19.3-.1-28.4 2.8-37.6 12-12.8 12.9-16.1 34.6-10.3 68.3 5.2 30.3 20.4 66.5 41 97.4 3.6 5.5 7 10.6 7.5 11.4 1.6 2.8-25.1-.6-47-5.9-82.2-20-159.9-77.5-205.3-152C13.8 449.8-.7 354.1 21.1 267.5c31.3-124 129.8-220.1 254.4-248 14.8-3.3 34.5-6.2 50.1-7.4 15.4-1.2 46.3-.5 63.4 1.5z"/><path d="M409.9 91c-10.2 1.3-13.5 5.6-16.5 21.8-1.6 8-2.1 9.2-3.7 9-1.4-.2-2.8-3.1-5.8-12.4L380 97.2l-4.3-.6c-47.3-6.5-90.2-.5-125.8 17.4-48.6 24.5-87.6 73.5-108.2 136-11.5 34.7-16.8 72.1-16.9 117.5 0 46.3 5.9 85.4 20.3 133.5 4.8 15.9 12.9 38 13.9 38 .7 0 3.5-4 23.2-34.3 10-15.4 18.2-24.8 23.9-27.8 5.1-2.6 12.8-2.4 21.3.5l6.8 2.3 4.2-8.6c4.6-9.7 5.4-16.4 2.4-19.8-1.7-1.9-2.2-1.9-10-.6-4.6.7-13.6 1.4-20.1 1.6l-11.8.2-11.6-22c-14.4-27.3-19.7-39.1-23-51.4-3-11.4-3.1-17.8-.2-23.7 2.2-4.6 9.1-10.9 7.5-6.8-5.4 12.8-4.5 27.8 2.5 41.6 3.7 7.3 4.1 6.9 5.8-5.6 1.6-11.6 3.2-15.3 7.3-17 1.8-.8 3.4-1.3 3.6-1.1.2.2 1.2 6.5 2.2 14.2 2.8 21.2 6.7 29.1 16.6 34.5 9.5 5 9.7 4.9 14.5-4.2 7.3-14 11.2-15.4 28.2-10 5.2 1.7 9.9 3 10.5 3 .6 0 1.8-2.2 2.7-5 3.3-10 14.7-35.5 16.8-37.8 3.8-4.1 7.1-5.2 15.5-5.2 10.7 0 18.3 2.5 36.1 11.7l14.4 7.5 7.7-.4c6.3-.2 8.4-.8 11.8-3.1 2.3-1.5 4.3-2.7 4.6-2.7.2 0 .7 2.1 1.1 4.7 1.7 12.4 10.8 33.6 15.1 35.5 4.3 2 4.6.2 1.8-13.7-2.9-14.8-2.6-22.7.9-27.1 1.8-2.4 2.5-2.6 7-2.1 6.4.8 31 11.4 39.6 17.2 8.1 5.3 11.7 9.7 14.6 17.7l2.1 5.8 3.9-5.3c5.7-7.5 15.5-17.7 18.9-19.4 3.9-2 7.6-1.1 15.9 3.8 3.8 2.3 7.3 3.7 7.7 3.3 1.8-1.8 16.8-30.9 16.4-31.6-.3-.5-2.3-.8-4.6-.8-5.3 0-21.9-3.4-32.1-6.6-4.5-1.5-16.3-5.8-26.2-9.6-30.1-11.7-46.1-16.8-64.5-20.5-5.3-1-16.9-1.6-39.1-2l-31.7-.5-2.1-8.2c-1.2-4.4-3.5-15.3-5.1-24.1-6.4-35.3-8.4-55-5.9-59.7 1.4-2.5 11-6.9 22.5-10.2 19.2-5.5 40.9-7 62.6-4.1 13.6 1.8 30.7 5.9 81.8 19.9 21.2 5.7 42.3 11.2 47 12.2 4.7.9 8.9 2 9.3 2.4.4.4-2.4 2.6-6.3 5-7.4 4.5-12.8 5.5-19.2 3.7l-2.8-.7v6.4c0 10.8 5.1 21.5 11.6 24.2l3.5 1.5 13.3-8.1c25.7-15.4 37.6-25.2 42.4-35 2.4-4.9 2.7-6.6 2.7-16 0-9.2-.3-11.2-2.6-16-5.4-11.5-14.4-20.3-45.6-44.7-22.3-17.4-25-21.4-26-37.5-.6-8.3-.8-9-3-9.9-4.4-1.6-11-.9-19.5 2-10.8 3.9-17 5.2-20.5 4.5-2.6-.5-3.2-1.7-9.2-18L441.7 90l-13.1.1c-7.2.1-15.6.5-18.7.9zM371 337.1c3.6.6 6.9 1.5 7.3 1.9 1 .9-1.7 6.5-4.7 9.8-6.7 7.5-11.7 7.1-44.1-3l-13-4.1 5-2.3c2.8-1.3 7.9-2.7 11.5-3.3 7.8-1.2 28.9-.6 38 1zM526.6 373c-13.8 5.4-19.8 14.3-21.3 31.5-.5 6.3.9 21.9 2.3 26.9.5 1.6 1.3 1.8 5.1 1.2 10.2-1.4 23.8-12.1 29.2-23 4.8-9.7 6.5-23 4.1-31.7-1.9-6.9-9.5-8.8-19.4-4.9zm-96.2 66.5c-.3.8-.4 5.2-.2 9.7.5 9.4 2.7 16 8.7 25.9l3.9 6.4-3.2.9c-4.8 1.3-19.4 0-26.8-2.4-3.6-1.2-8.2-3.6-10.2-5.2-3-2.4-3.6-3.6-3.6-6.7 0-2.1.7-5.8 1.5-8.1s1.5-4.5 1.5-4.7c0-.3-4-.3-9-.1-8.7.3-9.1.4-12.4 3.8-3.9 3.9-7.1 13.5-6.1 18.1 1.1 5 4.3 6.6 27.5 13.5 31.4 9.3 45.4 12.9 61.3 15.5 13.5 2.2 14 2.2 19.4.5l5.7-1.8-2.5-1.9c-1.3-1-6.5-3.9-11.6-6.4-8.8-4.3-13.3-8.1-13.3-11.2 0-2.4 5.1-6.5 14.6-11.7 8.2-4.5 28-18.4 27.2-19.1-.1-.1-3.2-1.5-6.8-3-5.7-2.4-57.7-13.5-63.2-13.5-1 0-2.1.7-2.4 1.5z"/></svg>