<svg fill="#eee" xmlns="http://www.w3.org/2000/svg" viewBox="0 0 503.8 467.3"><path d="M503.8 294c-2.8 1.7-5.7 3.4-8.9 5.3 1.9 3.1 3.6 6.1 5.6 9.3-2.5 1.7-5 3.3-7.8 5.2-2.1-3-4.1-5.8-6.2-8.8-3 1.8-5.8 3.6-9 5.6-1.7-2.6-3.3-5.1-5.2-7.9 3.1-2.1 5.9-4 8.9-6-1.9-3.1-3.7-5.9-5.6-9.1 2.6-1.7 5.1-3.3 8-5.2 2 2.9 3.8 5.6 5.9 8.9 3-1.8 5.9-3.6 8.9-5.5 1.9 2.6 3.7 4.9 5.4 7.3v.9zm-86-294c4.9 2.5 9 5.6 9.9 11.4 1.1 7.2-3.2 13.8-10 15.6-6.8 1.8-13.7-1.6-16.3-8-2.7-6.6-.1-13.9 6.3-17.5 1-.6 2-1.1 3.1-1.6 2.4.1 4.7.1 7 .1zm-3.4 21.4c4.2-.1 7.5-3.5 7.4-7.7 0-4.1-3.5-7.6-7.6-7.6-4.3 0-7.8 3.6-7.6 8 .2 4.3 3.5 7.4 7.8 7.3zM26.3 363.8c6.2 8.8 12.1 17.3 18.4 26.3-8.9 6.2-17.4 12.2-26.2 18.4-6.2-8.9-12.2-17.4-18.4-26.3 8.8-6.1 17.3-12.1 26.2-18.4zm453 26.2c-10.4-3-20.4-5.9-30.8-8.9 3-10.3 5.8-20.2 8.8-30.8 10.4 3 20.5 5.8 30.8 8.8-3 10.6-5.8 20.6-8.8 30.9zM14 191.1c8.7-9.6 17.6-19.3 27.3-29.9 3.8 14.2 7.2 27.1 10.9 40.9-13.7-3.9-26.5-7.6-38.2-11zm417.9 26.1c13.5 5.2 26 10.1 39.2 15.1-11.1 8.6-21.8 16.9-33.2 25.8-2.1-13.8-4-26.9-6-40.9zm-60-69.2c.4-4 .7-7.3 1-10.8h12.6c.4-4.1.8-8 1.3-12.3 3.7.2 7.1.3 10.8.5v12.9c3.9.4 7.9.8 12.4 1.3-.2 3.9-.4 7.4-.6 11.3-4.5-.3-8.4-.6-12.8-.9-.4 4.4-.8 8.4-1.2 12.9-3.8-.3-7.2-.6-11.3-.9.3-4.2.5-8.2.8-12.5-4.4-.6-8.5-1-13-1.5zM66.5 48c12.1 0 21.8 9.7 21.8 21.9-.1 12.2-9.9 21.9-22 21.8-11.9-.2-21.5-9.8-21.5-21.7-.1-12.2 9.5-22 21.7-22zm15.7 21.7c-.1-8.6-7-15.6-15.5-15.6-8.7-.1-15.9 7.1-15.9 15.8.1 8.6 7 15.5 15.5 15.6 8.9.1 15.9-7 15.9-15.8zm386 106.3c-11.6-.2-20.6-9.7-20.3-21.4.2-11.3 9.8-20.4 21.1-20.2 11.4.3 20.5 9.6 20.4 21-.2 11.7-9.5 20.8-21.2 20.6zm15-21c-.1-8.1-6.6-14.5-14.8-14.4-8 .1-14.6 6.7-14.6 14.7 0 8.2 6.9 14.9 15.1 14.7 8-.2 14.4-6.9 14.3-15zm-41 296.3c-1.7 3.6-3.2 6.7-4.8 10.1-3.6-1.5-6.9-2.8-10.5-4.3-1.6 3.4-3.1 6.5-4.8 10.2-5.4-2.3-10.6-4.6-16.1-6.9.9-2 1.5-3.7 2.4-5.7 3.6 1.4 6.9 2.7 10.5 4.2 1.6-3.3 3-6.4 4.7-10 3.4 1.4 6.7 2.8 10.5 4.3 1.6-3.4 3.1-6.6 4.8-10.4 3.4 1.5 6.6 2.9 10.4 4.6 1.7-3.5 3.2-6.9 4.9-10.5 5.4 2.5 10.5 4.9 16 7.5-.9 2-1.7 3.7-2.6 5.6-3.5-1.6-6.7-2.9-10.2-4.5-1.7 3.5-3.2 6.7-4.9 10.3-3.4-1.4-6.7-2.8-10.3-4.5zM128.1 171c1.7-3.6 3.3-6.9 4.9-10.4 3.5 1.6 6.7 3 10.3 4.6 1.7-3.5 3.2-6.9 4.9-10.5 4.7 2.2 9 4.2 13.4 6.2.7.3 1.4.8 2.6 1.4-.9 1.9-1.7 3.6-2.6 5.5-3.5-1.5-6.6-2.9-10.2-4.5-1.7 3.4-3.2 6.7-5 10.3-3.4-1.5-6.7-2.9-10.3-4.5-1.6 3.3-3.2 6.5-4.9 10.1-3.5-1.4-6.8-2.8-10.4-4.3-1.6 3.4-3.2 6.7-4.8 10.1-4.6-1.9-8.8-3.7-13.1-5.5-.9-.4-1.7-.9-2.9-1.5.7-1.8 1.3-3.4 2.2-5.5 3.5 1.4 6.9 2.7 10.5 4.2 1.7-3.4 3.2-6.6 4.9-10 3.6 1.5 6.8 2.8 10.5 4.3zM34.8 311.6c-.1-9 7-16.3 16-16.5 9.1-.2 16.6 7.3 16.5 16.4-.1 8.9-7.4 16.3-16.2 16.3-9 0-16.3-7.3-16.3-16.2zm26.4-.2c0-5.6-4.5-10.2-10-10.3-5.6-.1-10.4 4.9-10.3 10.5.1 5.5 4.9 10.1 10.3 10 5.4 0 10-4.6 10-10.2zM466.8 37.6c10.9 3.3 20.9 6.4 29.8 9.1-7 7.8-14.1 15.6-22.1 24.5-2.8-11.8-5.1-22.1-7.7-33.6zM172.5 104c-10.9 4.1-20.8 7.9-31.5 11.9 1.7-11.2 3.3-21.5 5.1-32.7 8.9 7.1 17.3 13.7 26.4 20.8zm51.2-45.6c1.4 3.5 2.7 6.5 4.1 9.8 3.3-1.2 6.4-2.4 9.8-3.6 1.5 3.2 2.8 6.2 4.4 9.6 3.1-1.1 6.2-2.3 9.8-3.6 2.1 4.9 4.2 9.7 6.5 15-1.7.8-3.2 1.6-5.2 2.5-1.6-3.3-3-6.4-4.6-9.8-3.2 1.2-6.3 2.4-9.6 3.7-1.5-3.3-2.9-6.4-4.4-9.8-3.3 1.3-6.4 2.5-9.9 3.8-1.4-3.3-2.7-6.4-4.2-9.8-3.4 1.2-6.6 2.4-10.1 3.7-2-5.1-3.9-10.1-5.9-15.3 1.7-.8 3.2-1.5 5.2-2.3 1.4 3.3 2.8 6.4 4.3 9.8 3.2-1.2 6.2-2.3 9.8-3.7zM386.3 71c3.6-1.1 6.8-2.1 10.2-3.1 1.2 3.4 2.3 6.6 3.5 10.1 3.4-1.1 6.5-2 9.9-3.1 1.3 3.4 2.4 6.6 3.7 10.1 3.4-1.1 6.6-2 10-3.1 1.8 5.2 3.5 10.2 5.4 15.6-1.8.6-3.5 1.2-5.4 1.9-1.3-3.4-2.5-6.4-3.8-9.8-3.4.9-6.5 1.8-9.9 2.7-1.3-3.3-2.4-6.3-3.7-9.7-3.3.9-6.5 1.8-10.1 2.8-1.2-3.3-2.3-6.5-3.6-9.9-3.4 1-6.6 1.9-10.3 2.9-1.6-5.2-3.2-10.2-4.9-15.7 1.9-.7 3.5-1.2 5.6-1.9 1.2 3.6 2.2 6.7 3.4 10.2zM154.1 29h-9.6v-8.7c3.1-.1 6-.3 9.2-.4v-9h8.7c.1 3 .3 5.8.4 8.9 3 .2 5.9.4 9 .6v8.4h-9c-.2 3.3-.3 6.2-.5 9.5H154c.1-2.8.1-5.7.1-9.3zM81.5 236.2h8.6c.2 3.1.4 6.1.6 9.4 3.1.1 5.9.3 8.9.4v8.1c-3 .2-5.8.4-8.9.6-.2 3.1-.4 6-.7 9.1h-8.3v-9c-3.4-.3-6.4-.5-9.7-.8v-8c3-.1 5.9-.3 9.3-.4.2-3 .2-5.9.2-9.4zM32 457.6c-.5-2.1-.9-4-1.4-6 2.5-.7 4.5-1.3 6.7-2-.4-2.3-.7-4.4-1.1-7 2-.4 3.8-.9 5.9-1.3.7 2.4 1.4 4.5 2.1 6.8 2.3-.4 4.4-.7 6.9-1.2.5 2 .9 3.7 1.4 5.9-2.2.7-4.4 1.4-6.8 2.2.4 2.3.7 4.3 1.1 6.9-2 .5-3.8.9-5.9 1.5-.7-2.4-1.4-4.4-2.1-6.7-2.1.1-4.1.4-6.8.9z"/></svg>