<svg id="arrow-right" xmlns="http://www.w3.org/2000/svg" viewBox="126.3 89.9 359.4 612"><path d="M186.6 89.9c11 3.4 18.8 11.3 26.7 19.1 86.4 86.7 173 173.3 259.8 259.9 10.6 10.6 15.7 22.7 10.7 37.2-1.9 5.4-5.4 10.7-9.5 14.9-89.7 90-179.5 179.9-269.4 269.5-15.1 15.1-34.7 15.1-49.9.3-7.2-7-14.5-13.8-20.8-21.5-10.9-12.7-10.3-30.5.6-43.2 1.7-2 3.6-3.7 5.3-5.6 73.1-73.1 146.1-146.1 219.3-219.2 1.7-1.7 3.7-3.1 6.8-7.3-2.2-1.1-4.7-1.9-6.2-3.4-73.8-73.7-147.7-147.5-221.4-221.4-13.7-13.8-16.5-32.8-5.1-45.7 11.3-13.1 22.2-27.5 39.8-33.7h13.3z"/></svg>