<svg id="logo" xmlns="http://www.w3.org/2000/svg" viewBox="0 0 979 307.8"><path d="M151.7 305.1C70 306-1.6 238.1 0 150.4 1.6 68 68.9 1.6 151.9 1.7c83.2.1 152 67 151.7 152.4-.2 84.5-69.2 151.7-151.9 151zm-7.3-5.7c70.4 5.4 148.1-48.7 153.7-137 5.4-86.3-64.9-158.3-151-155.5C61.9 9.7-5 85.1 6.5 172.6c5.5 42 26.2 75.7 60.9 100.5 20.3 14.5 42.9 23.2 68.7 26-.8-1.5-1.1-2.2-1.4-2.7-9.7-12.9-15.9-27.3-19.6-42.9-1.9-7.8-2.7-15.8-.7-23.8 1.8-7.3 6.4-12 13.9-13.2 3.4-.6 7-.6 10.4-.3 2.9.3 4.5-.7 5.3-3.2.6-1.7.9-3.5 1.4-5.3.8-2.7 1.4-5.5 2.6-8.1 1.8-3.7 4.4-4.6 8.8-3.5-.2.9-.4 1.9-.7 2.8-.8 3.4-1.9 6.7-2.5 10.2-.7 4.2.8 6 4.9 7.8 1.1.5 2.2 2 2.4 3.2 2.2 10.7 8.6 18.3 17.7 23.7 6 3.5 12.4 6.4 18.6 9.6 1.2.6 2.4 1.3 3.6 2-.4.7-.4.9-.5.9-1.5.2-2.9.5-4.4.6-13.1 1.2-24.9 5.8-33.3 16.1-6.6 8.2-11.9 17.1-18.2 26.4zm250.5-183.2h16.2v70.6c-4.1 0-7.9.3-11.7-.1-1.5-.2-3.1-1.8-4.2-3.1-9.7-11.6-19.4-23.3-29-35-.7-.9-1.5-1.7-3-3.3v41.6c-5.2 0-10 .1-14.7-.1-.8 0-1.7-1.3-2.1-2.2-.4-.8-.2-2-.2-3v-60.5c0-1.5.2-2.9.4-5 4.3 0 8.5-.2 12.5.1 1.3.1 2.7 1.7 3.7 2.9 9.4 11.3 18.7 22.6 28 33.9 1 1.2 2.1 2.3 3.9 4.3.2-14.3.2-27.4.2-41.1zm112.8-67.8c-1.4 3.7-2.9 7.3-4.2 11-2.2 5.8-4.3 11.5-6.4 17.3-.8 2.2-2.1 3-4.4 3.1-12 .7-11.9.7-16-10.7-4.6-12.8-9.3-25.7-13.9-38.5-.6-1.7-1.1-3.4-1.9-5.7H474c2.5 0 2.8 1.9 3.4 3.6 3 8.6 6 17.3 9 25.9.6 1.7 1.3 3.4 2.2 5.8.9-2.1 1.6-3.6 2.2-5.2 3.2-8.8 6.4-17.5 9.4-26.3 1-2.8 2.4-3.8 5.4-3.9 9.7 0 9.7-.2 13 9.2 2.9 8.3 5.9 16.6 9.1 25.7.8-1.5 1.4-2.3 1.8-3.2 3.2-8.7 6.4-17.5 9.5-26.3 2.2-6.1 1.7-5.3 7.8-5.3 2.2 0 4.3 0 6.5.1.5 0 .9.3 1.7.5-.4 1.5-.7 2.9-1.2 4.3-5.5 15.2-11.1 30.3-16.4 45.5-1.2 3.4-2.9 4.7-6.5 4.6-13.1-.4-9.7 1.8-14.2-9.8-2.7-7.1-5.3-14.3-7.9-21.5-.4-.1-.7-.1-1.1-.2zm24.8 63.6h15.7v23.8c4.9-1.5 9.2-3.5 13.6-4.1 3.8-.5 8-.1 11.8.9 7.6 2.1 12.2 7.5 13.5 15.2 2.2 12.7.6 25.5 1 38.7h-16.3v-5.6c0-7.8.2-15.7-.1-23.5-.3-9.6-6.8-14.2-15.4-11.1-3.8 1.4-6.1 4.1-7 7.8-.6 2.6-.8 5.3-.8 7.9-.1 8 0 15.9 0 24.4h-15.9c-.1-24.7-.1-49.2-.1-74.4zm131.2 20.3h14.9c.3 1.5.6 2.9 1 4.6 6.5-4.5 13.4-6.6 21-5.3 10.4 1.7 17.2 7.4 18.1 17.7 1 12.2.2 24.5.2 37.2H703v-6.7c0-7.5.1-15 0-22.5s-3.7-11.6-10-11.9c-7-.3-12.1 4.1-12.7 11.3-.4 4.3-.2 8.7-.3 13v12.5c-.1 4.5-.3 4.6-4.9 4.7h-7c-4.5-.1-4.7-.3-4.7-4.9v-45c-.1-1.5.2-3 .3-4.7zm152 31.7h-39.2c1.8 10.8 14.7 13.2 28.1 5.3 2.7 2.9 5.4 5.9 8.3 8.9-2.7 3.6-6.1 5.7-9.9 7-9 3.1-18 3-26.9-.5-11.6-4.6-18.2-15.9-16.9-28.3 1.3-12.2 9.9-21.8 21.8-24.3 6.9-1.4 13.5-.8 20.1 1.8 9.2 3.6 17.9 15.2 14.6 30.1zm-14.9-10.1c-1.1-7.4-7.7-10.9-14.7-10-5.6.7-9.3 4.4-9.7 10h24.4zM458.3 57h-39.6c3.3 11.1 15.5 13.2 28.4 5.2 2.7 2.9 5.5 5.9 9.1 9.6-3.8 2.3-6.8 4.9-10.2 6.2-9.9 3.6-20 3.3-29.6-1.4-10.9-5.4-16-16.3-14.3-29.3 1.5-10.9 10.7-20.2 22-22.4 5.9-1.1 11.6-.8 17.2 1 12.7 4.3 20.4 18 17 31.1zm-39.9-10.3h24.8c-1.7-6.7-5.6-9.8-12.1-9.9-6.9 0-10.6 2.8-12.7 9.9zm39.5 107.5c-.2-5.6-1.9-7.8-6.3-9.1-5.8-1.7-11.2-.4-16.5 1.9-1.4.6-2.6 1.3-4.4 2.2-1.9-3.7-3.7-7.2-5.8-11.2 2.6-1.3 4.8-2.8 7.2-3.7 8.1-3 16.5-3.8 25-2.2 10.8 2.1 17.2 9.3 17.7 21.1.4 10 .1 20 .1 30 0 2.8-1.1 3.9-3.9 3.8-3.5-.1-6.9 0-10.6 0-.4-1.8-.7-3.2-1-4.8-.5.1-1 .2-1.3.5-7.8 6.1-16.4 6-25 2.7-7-2.6-10.3-8.4-10-15.7.3-6.6 4.2-11.7 11.3-13.6 4.1-1.1 8.5-1.4 12.8-1.8 3.4-.3 6.9-.1 10.7-.1zm.3 9.5c-5.2.4-10.3.5-15.3 1.4-1.4.2-3 2.4-3.6 4-.8 2.1.2 4.3 2.3 5.5 4.1 2.2 8.4 2.1 12.3-.2 3.6-1.9 5.6-5.1 4.3-10.7zm177.1 23.1c-.3-2-.5-3.3-.7-4.8-.5.2-1 .2-1.4.4-7.8 6.1-16.4 6-25 2.8-7-2.6-10.4-8.4-10-15.6.3-6.6 4.2-11.7 11.2-13.6 4-1.1 8.2-1.4 12.3-1.8 3.6-.3 7.3-.1 10.8-.1.7-4.9-1-7.6-5.3-9-5.9-1.9-11.5-.6-17 1.7-1.4.6-2.6 1.3-4.4 2.2-1.9-3.7-3.7-7.1-5.8-11.2 2.5-1.3 4.7-2.8 7.1-3.7 8.1-3 16.5-3.8 25-2.2 10.8 2.1 17.2 9.3 17.7 21 .4 10 .1 20 .1 30 0 2.8-1.1 3.9-3.8 3.8-3.5 0-6.9.1-10.8.1zm-2-23c-5.2.3-10.1.5-15 1.1-2.2.3-4.2 1.8-4 4.3.1 1.8.8 4.2 2.1 5.1 3.8 2.7 8.2 2.3 12.3.3 3.9-1.9 5.2-4.9 4.6-10.8zM587 74.3c1.8-3.9 3.4-7.5 5.1-11.1 4.7 1.4 9 3.1 13.5 4 3.5.6 7.3.4 10.9.1 2.1-.2 4.8-1.2 4.3-3.8-.2-1.4-2.4-3-4-3.5-3.1-1-6.5-1.2-9.8-1.9-2.9-.6-5.9-1.2-8.7-2.2-5.6-2-9.3-5.8-9.8-12-.6-6.1 1.6-11.1 6.6-14.7 5.8-4.1 12.6-5.1 19.5-5 6.8.2 13.6 1.1 20.4 5-1.8 3.8-3.5 7.4-4.9 10.2-6.6-.9-12.5-1.9-18.3-2.4-1.7-.2-3.7.4-5.2 1.2-1.1.6-2.1 2.2-2.1 3.5 0 .9 1.3 2.5 2.3 2.8 3.5 1 7.1 1.6 10.7 2.4 3.2.7 6.5 1.3 9.7 2.4 12.5 4.2 11.9 19.9 4 25.3-2.7 1.8-5.8 3.5-8.9 4.3-10.3 2.5-20.5 1.7-30.4-2.1-1.7-.6-3.1-1.5-4.9-2.5zM346.7 9.1h16.6v56.6h34.8v13.7c-1.6.1-3 .4-4.5.4h-42.5c-4.6 0-4.8-.3-4.8-4.8V13c0-1.1.2-2.2.4-3.9zm172.9 163.5c1.5 4 2.8 7.5 4.1 10.8-7.8 5.7-21.3 5.1-27.9-.8-4.4-4-5.5-9.4-5.7-14.9-.2-5.3 0-10.6-.1-16 0-1.6-.1-3.3-.2-5.2-2.5-.2-4.7-.4-7.4-.7v-12.1c2.3-.3 4.7-.6 7.7-1v-12.3h16.3v12.5c4.8.3 9 .5 13.4.7v12.3h-13.4v9.3c0 3.7-.1 7.3 0 11 .2 6.9 3.3 9.2 10.1 7.5.9-.3 1.6-.6 3.1-1.1zm307-60.6h16c.1 1.8.3 3.5.3 5.1v64.4c0 5.2-.1 5.4-5.3 5.4-13.5-.2-11.3 1.9-11.3-11.2-.1-19.1 0-38.3 0-57.4 0-2 .2-4 .3-6.3zM647.4 292.5v-52.4c10.3.4 20.5-1.4 30.4 1.3 14.5 3.9 19.6 15.6 19.1 26.4-.7 13.5-9.4 22.9-22.7 24.3-7.6.8-15.3.6-22.9.8-1.2 0-2.3-.3-3.9-.4zm6.3-48c-1.5 6.8-1.2 39.6.4 43.9 7-.4 14.3-.2 21.4-1.5 9.9-1.8 15.7-10 15.7-20.2.1-10.5-5.4-18.6-15.3-20.6-7.1-1.4-14.7-1.2-22.2-1.6zM562.5 25.2h15.3v54.2h-15.3V25.2zm170.9 107.1h15.5v54h-15.5v-54zm76 169.5c1-1.5 1.7-2.5 2.5-3.6.7.2 1.2.3 1.6.6 4.5 2.8 9.3 4.3 14.7 4.2 9.2-.1 13.8-4.7 14-13.8v-4.1c-12.3 8.2-23.8 7.9-30.8-.5-6.1-7.3-5.8-18.9.6-25.7 7.4-7.9 19.2-7.9 29.9.4.3-1.9.5-3.6.8-5.4 2.9-1.1 4.6-.8 4.6 2.7-.1 11.7.2 23.3-.2 35-.3 9.2-5.2 14.2-14.4 15.8-8.3 1.3-15.8-.5-23.3-5.6zm18-44.1c-9-.1-15 5.6-15.2 14.3-.1 8.2 6 14.3 14.6 14.4 9.1.1 15.1-5.4 15.3-14.1.2-8.7-5.6-14.6-14.7-14.6zm-370.5 5.4c-1.5-2.2-3-4-4.2-6-4.3-7.6-.8-15.5 7.7-17.2 2.2-.4 4.7-.5 6.9-.1 8.8 1.5 12 10.7 6 17.4-2.2 2.4-5 4.3-8.1 7 4.4 4.6 8.7 9.2 13.9 14.5 1.5-3.6 2.6-6.4 3.9-9.6 1.1.3 2.3.6 4.1 1.1-1.5 4.2-2.8 8.1-4.3 12.3 1.5 1.6 3.1 3.5 4.9 5.2 2 1.9 1.6 3.4-1.1 5.1-2.1-2-4.4-4.1-6.9-6.4-1.3.9-2.5 1.7-3.7 2.5-7 4.7-14.6 5.5-22.4 2.7-9.9-3.5-12.3-14.1-5-21.6 2.4-2.4 5.3-4.4 8.3-6.9zm2.3 3.9c-2.1 1.7-5.2 3.7-7.5 6.4-3.6 4.3-2.3 10.7 2.3 13.4 6.6 3.9 16.6 2 21.9-4.4a6195 6195 0 00-16.7-15.4zm2.5-5.7c3.2-2.6 6-4.3 8.3-6.7 2.7-2.8 2.5-6.6 0-9-2.4-2.4-8.1-2.6-11.2-.5-2.8 1.9-3.8 5.8-1.9 9.4 1.1 2.1 2.8 4 4.8 6.8zm-77.4-20.9h5.1c.2.8.6 1.6.6 2.4 0 9.7.4 19.3 0 29-.7 17.3-15.4 26.3-31.5 19.7-6.3-2.6-10.4-7.4-10.9-13.9-1-12.2-1-24.5-1.4-37.1 2.3-.2 3.7-.3 5.3-.4.3 1 .6 1.8.6 2.6.1 8.3 0 16.7.1 25 0 1.7-.1 3.3.1 5 1.1 15.4 12.3 17.6 22.5 14.8 6.9-1.9 9.3-7.8 9.5-14.4.3-9 .1-18 .1-27-.1-1.9-.1-3.7-.1-5.7zm134.7-.1h5c.1 1.9.3 3.7.3 5.4v23c0 1.7 0 3.3.3 5 1.6 10.8 7 15.2 17.6 14.5 8.3-.5 13.4-5 13.9-13.4.5-8.1.3-16.3.4-24.5v-10h5.2c.1 1.5.4 2.8.4 4.1 0 8.8.1 17.7 0 26.5-.2 18-15.5 27.6-32.1 20.2-6.7-3-9.8-8.7-10.8-15.7-.3-2-.2-4-.3-6 .1-9.5.1-18.9.1-29.1zm96.8.2c-5.3 7.2-10.2 13.9-15.1 20.6-3.2 4.4-3.2 4.4.1 8.9 5.3 7.2 10.6 14.4 16 21.7-4.6 1.7-5.2 1.7-7.7-1.7-4.9-6.5-9.6-13.1-14.8-20.2-1.3 1.6-2.4 2.7-3.3 4-3.8 5.2-7.7 10.4-11.4 15.8-2 2.9-4.2 4-8.3 2.5 6.5-8.9 12.9-17.5 19.5-26.5-6-8.3-11.9-16.4-17.9-24.6 5-1.6 5.2-1.6 7.9 2.1 4.4 5.9 8.7 11.7 13.5 18.3 1.8-2.3 3.3-4.2 4.7-6.2 3-4 5.9-8.1 8.9-12.1 2.4-3.2 2.4-3.1 7.9-2.6zm122.1 43c.8.9 1.6 1.7 2.2 2.3-3.4 7.7-17.8 9.1-25.5 5-8.6-4.6-12.5-15.4-8.9-25.5 3.3-9.3 13-14.3 23-11.9 9 2.2 14.9 10.8 13.7 21.1h-32.2c.1 5.7 2.3 9.2 6.3 11.4 7.2 4.2 14.3 3.1 21.4-2.4zM710.3 270h26.9c-.5-7.7-6-12.8-13.5-12.8-7.2 0-12.6 4.9-13.4 12.8zm237.4 4.7h-31.9c.6 13.2 13.6 17.4 27.2 9.4 2.1 1.2 3.4 2.4.9 4.7-6.2 5.7-19.4 5.8-26.5.1-7.8-6.3-9.8-18.3-4.5-27.1 4.8-7.9 15.3-11.2 24.1-7.4 7.6 3.2 11.8 10.7 10.7 20.3zm-5-4.7c-.6-7.7-6.2-12.8-13.6-12.8-7.3 0-12.7 5-13.5 12.8h27.1zm-44.4 22.3c-4.6.5-4.7.4-4.8-3.3-.1-6.2 0-12.3-.1-18.5-.1-8.6-4-13-11.6-13.1-7.9-.1-13.3 4.8-13.7 12.8-.3 5.5-.1 11-.1 16.5v5.2c-4.9 1-5.4.8-5.4-2.7-.1-10.8 0-21.7-.1-32.5 0-3.1 1.3-4.3 4.6-3.1.4 1.4.8 3 1.3 5 4.6-4.3 9.7-6.1 15.7-5.8 7.9.5 13.3 4.4 14.1 12.2.8 9 .1 18 .1 27.3zm-119.2-35.9c-.8 1.4-1.3 2.6-2 3.7-.7-.1-1.2-.2-1.6-.4-4.6-2.3-9.4-3.3-14.5-1.9-3.8 1-5.8 3-5.8 5.9 0 3.5 2.4 4.9 5.2 5.8 2.2.7 4.5 1 6.8 1.6 2.3.6 4.5 1.1 6.7 1.8 4 1.4 6.4 4.1 6.6 8.5.2 4.3-2.1 8-6.3 9.9-5.4 2.5-11 2.3-16.6 1.1-2.1-.4-4.1-1.3-6.1-2.2-3.1-1.3-3-3.2-1.5-4.7 5.9 1 11.2 2.1 16.5 2.6 1.9.2 4.2-.3 5.7-1.4 1.4-1 2.8-3.1 2.7-4.8 0-1.6-1.5-3.8-3-4.6-2.6-1.3-5.7-1.6-8.6-2.4-2.4-.6-4.9-1.1-7.2-2-4-1.5-6.1-4.4-6.2-8.7-.1-4.5 1.9-7.8 5.9-9.6 7.9-3.1 15.6-2.2 23.3 1.8zm-371.9-16.1h4.6v51.8c-4.7.9-5.2.8-5.2-2.6-.1-15.8 0-31.7.1-47.5-.1-.5.2-.9.5-1.7zm334-115.2c-5.9.1-10.2-3.8-10.2-9.1 0-5.2 4.1-8.9 9.8-9 5.7-.1 10.1 3.6 10.3 8.6.2 5.3-4.1 9.4-9.9 9.5zm-170.9-107c-5.9.1-10.3-3.9-10.2-9.2.1-5.1 4.2-8.9 9.9-9 5.8-.1 10 3.5 10.2 8.6.2 5.5-4.1 9.6-9.9 9.6zm389.2 235.4h4.3c.2 1.9.4 3.5.7 5.7 3.9-3.8 8-6.7 13.8-6 1 2.2 1.5 4.3-1.8 4.6-9.7 1-11.9 8.1-12.1 15-.2 5.3 0 10.7-.1 16-.1 3.9-.1 3.9-4.7 3.4-.1-12.6-.1-25.4-.1-38.7zm-163.9 38.7c-4.7.7-5 .6-5.1-3-.1-10.8-.1-21.6 0-32.3 0-3.6.4-3.7 5.1-3v38.3zm1.4-50.3c-.8.6-2 2-3.5 2.4-1.9.5-4.4-1.9-3.8-3.5.5-1.4 2.1-3 3.5-3.5 1.8-.6 3.8 1.6 3.8 4.6z"/><path d="M139 140.8c20.9-4.3 39.4 1.1 57.8 8.3 6.6 2.6 13.5 4.6 20.4 6.6 2.5.7 5.1.7 7.9 1-2.7 5.1-5.1 9.7-7.7 14.7-1.3-.9-2.5-1.6-3.8-2.4-4.2-2.5-7-2.2-10.1 1.5-2.1 2.5-3.9 5.3-6.2 8.5-3.1-12.8-14.4-14.2-23.6-18.4-2.6-1.2-3.8.4-4.3 2.6-1.4 5.3-1.1 10.5 2.5 15.1-2.4 2-4.1.9-5.1-.9-1.5-2.7-2.7-5.7-3.7-8.6-.7-2-.9-4.2-1.4-6.9-6 5.2-11.4 2.7-16.8-.4-4.8-2.8-9.7-5.2-15.4-5.3-3.9-.1-6.8 1.2-8.3 5-1.5 3.9-3.2 7.7-4.7 11.5-.6 1.5-1.1 3.1-1.7 4.9-2.8-1.1-5.2-2.2-7.7-3-5.1-1.6-7.5-.3-9.2 4.6-.5 1.4-.9 2.8-1.5 4.7-12.6-3.5-12.8-13.5-12.8-23.6-4.3 1.9-4.3 1.9-5.7 14.3-5.3-7.6-5.9-14.8-3.5-22.7-3.2 3.1-4.5 6.8-3.5 10.9 1 4.3 2.4 8.7 4.3 12.7 3.8 7.9 8.1 15.6 11.8 22.6 3-.1 5.6-.2 8.2-.4 1.9-.2 3.8-.6 5.7-.8 1.3-.2 3.4-.7 3.9-.1.9 1.1 1.4 3.1 1 4.4-.9 3-2.5 5.7-3.8 8.4-.4.1-.6.2-.8.1-8.7-3.6-12.1-2.9-17.8 4.8-3.7 4.9-6.8 10.3-10.1 15.5-1.1 1.6-2.2 3.2-3.7 5.3-1-1.4-1.8-2.3-2.1-3.3-10.7-29.4-15.7-59.5-12.3-90.7 2.6-23.9 9.5-46.3 24.4-65.6C95 55.8 115 44.5 140.4 42.6c8.5-.6 16.9 0 24.9 1.4 1.2 3.8 2.3 7.1 3.4 10.5.5 0 1-.1 1.5-.1.4-2 .7-4 1.2-6 1.2-5.7 3.3-7.5 9.2-7.5 3.3 0 6.7-.1 10 .1 1 .1 2.5 1.1 2.8 2 1.6 4.1 2.8 8.4 4.2 12.7 7 1.6 12.8-5.4 19.7-2.2.1.1.4.4.4.7-1.1 8.1 2.7 13.8 8.8 18.4 3.2 2.4 6.6 4.5 9.7 7 3.4 2.8 7.1 5.7 9.8 9.2 6.3 8.1 5.3 17.8-2.2 24.6-2.8 2.5-6.2 4.5-9.4 6.6-2.4 1.5-4.9 2.8-7.3 4.3-3.6 2.3-4.9 2.2-7.2-1.5-2-3.3-3-6.9-1.9-11.3 4.7 2.5 8-.1 11.7-2.6-.5-.4-.8-.8-1.2-.9-12.8-3.5-25.7-6.9-38.6-10.3-10.3-2.7-20.7-4.9-31.5-4.6-7.4.2-14.5 1.8-21.4 4.5-2.5 1-4 2.4-3.8 5.1.4 5.8.3 11.7 1.3 17.4.7 6.7 2.7 13.4 4.5 20.7zm-1.2 9.1c5.7 1.7 11.3 3.6 17.1 5 4.9 1.1 7.7-1 9.8-6.9-9.2 1.2-18.1-2.7-26.9 1.9zm36.8 49.1c-2.5 6.9-1 9.7 6.1 11 3.5.7 7 .7 11 1-6.1-14.4-6.3-15.1-4.1-21 6.6 4.3 14.2 3.6 21.5 5.1 2.8.6 5.5 1.9 8.2 3 .1.5.2.9.3 1.4-2.3 1.7-4.5 3.6-6.9 5.2-2.7 1.7-5.6 2.9-8.2 4.7-2.9 1.9-2.9 3.7 0 5.7 1.5 1 3.2 1.7 4.9 2.5l3.9 1.8c0 .4 0 .9.1 1.3-1.5.5-3.1 1.4-4.6 1.3-4.1-.4-8.3-.8-12.3-1.9-9.6-2.6-19.2-5.6-28.8-8.2-2.4-.7-3.1-1.9-3.2-4.2-.5-5.4 3-11 12.1-8.7zm44.2-20.2c.3-2.1.4-5 1.3-7.7 1.8-5.4 8.2-9.4 13.7-8.8 1.1.1 2.6 1.5 3 2.6 3.3 9.1-4.1 22.5-13.5 24.7-2.1.5-3.3-.2-3.6-2.2-.4-2.6-.6-5.2-.9-8.6z"/></svg>