<svg fill="ffffff" xmlns="http://www.w3.org/2000/svg" viewBox="0 0 1438 227.9"><path d="M0 133c19.5-12.1 44.2 2.3 44.1 24.9-.1 19.6-20 33.5-38.5 27-1.9-.7-3.8-1.2-5.7-1.8.1-16.8.1-33.5.1-50.1zM41 0c-3.1 13.6-6.3 27.3-9.6 41.6-11-2.7-21.2-5.1-31.4-7.6V0h41zm240 0c4.4 12.2-5.5 27-18.9 28.1-13.9 1.2-24.2-7-26-20.8-.3-2.3.6-4.9.9-7.3h44zm801.9 0c-4.4 3.7-8.7 7.5-13.2 11-7.2 5.6-14.5 10.9-22.3 16.8-7-9.5-13.8-18.6-20.5-27.8h56zm220.9 0c-.7 3.5-1.4 7.1-2.3 11.4-5.3-.8-10.4-1.6-15.8-2.4-1 5.2-2 10-3 15.2-5.5-.7-10.6-1.4-15.9-2.1-1.1 5.4-2 9.9-3.1 15.3-7.6-1.2-15-2.3-23.2-3.6.3-2.6.6-4.9 1-7.6 5.5.7 10.4 1.3 15.8 2 1-5.1 2.1-10 3.1-15.3 5.3.7 10.3 1.4 16 2.2.9-5.4 1.7-10.3 2.4-15.1h25zM772.9 0c.2 3.2 1.2 6.7.5 9.7-1.9 7.6-9.2 11.3-16.8 9.3-6.8-1.8-10.8-9-9.1-16.5.2-.8.3-1.6.4-2.5h25zM199.7 137.6c18.8-14.8 36.5-28.6 55.3-43.4 3.8 23.9 7.4 46.7 11.1 70.6-22.3-9.2-43.7-18-66.4-27.2zm753.7-54.1c-14.8-3.7-29-7.2-43.8-10.9 3.6-14.5 7.1-28.6 10.9-43.6 14.7 3.6 28.9 7 43.8 10.6-3.7 14.9-7.2 29.1-10.9 43.9zm-389.1-31c-12.1 8.5-23.6 16.6-36 25.2-8.4-12-16.6-23.7-25.3-36 12.2-8.5 23.9-16.8 36.1-25.3 8.4 12.2 16.7 24 25.2 36.1zm717.4 54.4c12-8.4 23.5-16.4 35.3-24.7 8.3 11.9 16.3 23.3 24.6 35.2-11.8 8.3-23.3 16.3-35.2 24.7-8.3-11.8-16.2-23.1-24.7-35.2zm105.2-35.6c-10.4.7-21.3-8.8-21-21.4.3-12 9.3-21.6 22.3-21.1 11.6.5 20.8 9.9 20.8 21.7 0 10.3-9.9 21.9-22.1 20.8zM773 164.2c-9.9.7-20.9-8.1-21-20.9-.1-11.6 8.7-22.2 22.3-21.6 11.6.5 20.8 9.9 20.8 21.7 0 10.4-9.9 22-22.1 20.8zm76.4 25.1c-2.2-4.6-4.2-8.6-6.5-13.3 5.3-2.6 10.4-5.2 15.9-7.9-2.5-5.3-4.9-10.3-7.5-15.8 4.5-2.3 8.6-4.4 13.1-6.6 2.8 5.4 5.4 10.4 8.2 15.8 5.1-2.5 10-4.9 15.7-7.6 2.2 4.4 4.3 8.6 6.6 13.3-5.4 2.8-10.4 5.3-15.7 8 2.5 5.3 4.8 10.2 7.4 15.8-4.4 2.2-8.5 4.3-13.2 6.7-2.7-5.4-5.1-10.2-7.9-15.7-5.4 2.3-10.4 4.7-16.1 7.3zm-249.8 38.5c2.6-10.6 5.2-20.7 7.9-31.8 14.7 3.6 29 7 43.8 10.6-1.9 7.5-3.6 14.2-5.3 21.2h-46.4zm-294.3-21.9c15.1-3.2 29.3-6.3 44.1-9.4 2.3 10.7 4.4 20.9 6.6 31.4h-45.9c-1.6-7.1-3.1-14.2-4.8-22zm203.3-46.5c5.5 1.4 10.4 2.7 15.5 4 1.5-5.1 2.9-9.8 4.5-15.4 7.6 2.1 15 4.2 22.9 6.4-.7 2.7-1.3 4.9-1.9 7.4-5.4-1.4-10.3-2.6-15.4-3.9-1.6 5.4-3 10.1-4.5 15.4-5.1-1.3-9.9-2.6-15.3-4.1-1.5 5.1-3 10-4.5 15.2-5.3-1.2-10.3-2.4-15.5-3.6-1.6 5.2-3 9.9-4.5 15.1-7.8-2-15.2-4-23.1-6 .7-2.7 1.2-4.7 1.9-7.3 5.3 1.2 10.2 2.3 15.7 3.5 1.4-5 2.8-9.7 4.3-15 5.2 1.2 10.3 2.3 15.7 3.5 1.1-4.9 2.5-9.6 4.2-15.2zM636.1 35.1c3.2 4.8 5.9 8.8 8.8 13.2 4.5-2.9 8.7-5.6 13.6-8.8 2.9 4.3 5.7 8.5 8.8 13.2 4.4-2.8 8.7-5.5 13.4-8.6 3.1 4.3 6.2 8.5 9.5 13.1 4.4-2.8 8.5-5.5 13.2-8.6 4.5 6.3 8.8 12.5 13.5 19.2-1.9 1.5-3.8 3-6.1 4.8-3.3-4.5-6.3-8.6-9.6-13.2-4.2 2.8-8.5 5.6-13 8.6-3.2-4.3-6.3-8.5-9.5-12.9-4.6 2.9-8.8 5.6-13.5 8.6-3-4.5-5.8-8.7-8.9-13.3-4.4 2.8-8.6 5.6-13.5 8.8-4.3-6.4-8.5-12.6-13.2-19.6 2-1.4 4-2.8 6.5-4.5zm-494 38.4c-.7 5-1.3 9.6-2.1 15-4.2-.5-7.9-.9-12-1.4.3-4.9.7-9.5 1-14.7-5-.7-9.7-1.4-14.6-2.1.3-4.3.7-8 1-12 5.4.4 10.1.7 15.1 1 .6-4.8 1.2-9.2 1.8-14.5 4.2.3 8.1.6 12.3.9-.5 5.6-.9 10.1-1.3 15.1 5 .7 9.7 1.3 15 2-.5 4.2-.9 7.9-1.4 12.2-4.8-.7-9.4-1.1-14.8-1.5zM824 85.2c-12.2-5-24.4-10-37.6-15.5 11.1-8.7 21.4-16.8 32.4-25.5 2.2 14.2 4.3 27.2 6.3 40.2-.4.3-.8.6-1.1.8zm360.1 53.8c10.2-9.8 19.5-18.7 29.7-28.6 3.6 13.6 7 26.3 10.4 38.9-.3.3-.6.7-.9 1-12.7-3.6-25.4-7.3-39.2-11.3zm-1041 81.2c.7 2.6 1.2 4.8 1.9 7.5h-7.5c-1.3-3.9-2.6-7.9-4.1-12.4 4.8-1.7 9.3-3.4 14.3-5.1-1.4-4.8-2.7-9.5-4.2-14.6 4.8-1.7 9.3-3.2 14.3-4.9-1.4-4.8-2.8-9.3-4.4-14.6 7.2-2.2 14.2-4.3 21.7-6.7.8 2.5 1.3 4.5 2 6.9-4.8 1.6-9.2 3.1-14.2 4.8 1.5 4.9 2.8 9.4 4.4 14.6-4.8 1.6-9.3 3.2-14.4 5 1.4 4.5 2.7 8.7 4.3 14.1-4.3 1.6-8.9 3.4-14.1 5.4zM1383 208.9c-1 3.2-1.7 5.5-2.4 7.9-.7 2.4-1.3 4.7-2.1 7.5-2.7-.7-5.1-1.3-7.4-1.9-2.4-.6-4.8-1.3-7.7-2.1-1 2.5-1.9 4.9-3 7.6H1336c.4-1.9.7-3.5 1.1-5.8 5.3 1.2 10.4 2.4 15.8 3.7 1.4-4.9 2.8-9.6 4.4-15.2 5.2 1.3 10.2 2.5 15.5 3.8 1.4-4.9 2.8-9.6 4.5-15.3 7.5 2 14.9 4.1 22.8 6.2-.6 2.6-1.1 4.7-1.8 7.5-5.1-1.4-10-2.6-15.3-3.9zm-248.6-17.7c-7.6 0-13.4-5.7-13.6-13.1-.1-7.4 6.1-13.5 13.8-13.4 7.6.1 13.4 5.8 13.4 13.2 0 7.6-5.8 13.4-13.6 13.3zm288.7-59.9c4.5-2.3 8.4-4.3 13-6.6.7 1.8 1.7 3.2 1.8 4.6.1 10.3.1 20.6.1 31.1-5.4 2.6-10.7 5.2-16.6 8-2.2-4.5-4.3-8.6-6.7-13.4 5.4-2.6 10.5-5.2 15.9-7.8-2.5-5.4-4.9-10.4-7.5-15.9zM372.7 47.5c1.7 3.5 3 6.3 4.6 9.5 3.2-1.2 6.1-2.3 9.4-3.5 1.1 2.5 2.1 4.7 3.3 7.4-3.2 1.5-6 2.8-9.2 4.2 1.1 3.1 2.1 6 3.4 9.5-2.2 1.1-4.4 2.1-7.1 3.4-1.5-3.1-3-6-4.5-9.3-3 1.1-5.9 2.2-9.4 3.5-1-2.4-2-4.7-3.2-7.3 3.1-1.6 5.8-2.9 8.9-4.4-1-3-2-5.9-3.1-9.3 2.1-1.1 4.3-2.2 6.9-3.7zm760.6.4c3 .2 4.9.3 7.4.4.3 3.4.5 6.6.8 10 3.4.4 6.6.8 10.2 1.2-.3 2.8-.6 5-.9 7.4-3.3.2-6.2.4-9.6.6-.3 3.1-.6 6-.9 9.3h-8v-9.3c-3.4-.5-6.6-1-10.4-1.6.2-2.6.4-4.9.5-7.5h9.9c.4-3.4.7-6.8 1-10.5zm-69.2 81.2c-4-5.6-7.5-10.6-11.5-16.3 5.4-3.8 10.7-7.6 16.4-11.6 3.9 5.6 7.5 10.6 11.5 16.3-5.5 3.9-10.7 7.6-16.4 11.6zm-65.2 36.3c-.7-3.6-1.3-6.6-2-9.9-3.4.3-6.6.7-10.5 1-.8-4.8-1.6-9.4-2.4-14.6 1.6-.4 2.9-.7 4.4-1.1.8 3.5 1.4 6.6 2.2 10 3.4-.4 6.6-.8 10.3-1.2.7 3.3 1.2 6.1 2 9.8 3.1-.3 6.2-.6 10-.9.8 3.2 1.7 6.4 2.7 10 3.2-.5 6.3-.9 9.9-1.4 1 4.8 1.9 9.4 2.9 14.2-1.5.6-2.6 1.1-4.3 1.8-.9-3.4-1.7-6.5-2.6-10-3.4.3-6.4.7-10 1-.8-3.2-1.5-6.4-2.4-9.9-3.2.3-6.3.7-10.2 1.2zm81.2 62.4h-28.6c6.9-7.4 13.9-15 20.9-22.6.5.1 1 .1 1.5.2 2.1 7.3 4.1 14.6 6.2 22.4zm171.3-38.3c-1.9.3-3.4.5-5.2.8-.4-1.2-.9-2.3-1.4-3.7 2-.8 3.7-1.5 5.6-2.3-.2-1.8-.4-3.5-.6-5.6 1.3-.3 2.5-.6 3.9-1 .8 2 1.4 3.6 2.1 5.3 1.9-.1 3.7-.3 5.9-.4.2 1.3.3 2.5.5 3.8-1.7.8-3.2 1.4-4.8 2.1v5.6c-1 .3-2.3.8-3.7 1.2-.9-2.2-1.5-3.8-2.3-5.8zM677 125.1c-.9 1.6-1.6 3-2.6 4.7-1.3-.4-2.4-.7-3.8-1.1.5-2 .9-3.7 1.4-5.7-1.5-.9-3-1.8-4.8-3 .5-1.2.9-2.3 1.4-3.7 1.9.5 3.5.9 5.4 1.4 1-1.4 2-2.9 3.3-4.8 1.1.4 2.4.9 3.7 1.4-.6 2-1.2 3.5-1.8 5.4 1.5 1 3.1 2.1 5 3.3-.6 1.3-1 2.4-1.5 3.5-2.1-.5-3.8-1-5.7-1.4z"/></svg>